<mxfile host="app.diagrams.net" modified="2023-03-02T12:15:32.615Z" agent="5.0 (X11; Linux x86_64) AppleWebKit/537.36 (KHTML, like Gecko) Chrome/110.0.0.0 Safari/537.36" etag="V01oQKmJIxyCOH_2LeJN" version="20.8.23" type="github">
  <diagram name="PÃ¡gina-1" id="Z5eOo7kfEicGYJq98-QA">
    <mxGraphModel dx="2261" dy="802" grid="1" gridSize="10" guides="1" tooltips="1" connect="1" arrows="1" fold="1" page="1" pageScale="1" pageWidth="827" pageHeight="1169" math="0" shadow="0">
      <root>
        <mxCell id="0" />
        <mxCell id="1" parent="0" />
        <mxCell id="Fhv3M6BjFYFYZc-pMVqY-2" value="API" style="rounded=0;whiteSpace=wrap;html=1;verticalAlign=top;align=center;fontSize=17;fillColor=#f5f5f5;fontColor=#333333;strokeColor=#666666;" parent="1" vertex="1">
          <mxGeometry x="90" y="40" width="1190" height="440" as="geometry" />
        </mxCell>
        <mxCell id="Fhv3M6BjFYFYZc-pMVqY-28" style="edgeStyle=orthogonalEdgeStyle;rounded=0;orthogonalLoop=1;jettySize=auto;html=1;exitX=1;exitY=0.5;exitDx=0;exitDy=0;entryX=0;entryY=0.5;entryDx=0;entryDy=0;fontSize=17;" parent="1" source="Fhv3M6BjFYFYZc-pMVqY-3" target="Fhv3M6BjFYFYZc-pMVqY-4" edge="1">
          <mxGeometry relative="1" as="geometry" />
        </mxCell>
        <mxCell id="Fhv3M6BjFYFYZc-pMVqY-3" value="Request" style="rounded=1;whiteSpace=wrap;html=1;fontSize=17;fillColor=#f8cecc;strokeColor=#b85450;" parent="1" vertex="1">
          <mxGeometry x="120" y="215" width="100" height="30" as="geometry" />
        </mxCell>
        <mxCell id="Fhv3M6BjFYFYZc-pMVqY-4" value="" style="rhombus;whiteSpace=wrap;html=1;fontSize=17;fillColor=#e1d5e7;strokeColor=#9673a6;" parent="1" vertex="1">
          <mxGeometry x="250" y="215" width="30" height="30" as="geometry" />
        </mxCell>
        <mxCell id="Fhv3M6BjFYFYZc-pMVqY-32" style="edgeStyle=orthogonalEdgeStyle;rounded=0;orthogonalLoop=1;jettySize=auto;html=1;exitX=1;exitY=0.5;exitDx=0;exitDy=0;entryX=0;entryY=0.5;entryDx=0;entryDy=0;fontSize=17;" parent="1" source="Fhv3M6BjFYFYZc-pMVqY-5" target="Fhv3M6BjFYFYZc-pMVqY-6" edge="1">
          <mxGeometry relative="1" as="geometry" />
        </mxCell>
        <mxCell id="Fhv3M6BjFYFYZc-pMVqY-5" value="Routers" style="rounded=1;whiteSpace=wrap;html=1;fontSize=17;verticalAlign=top;arcSize=6;fillColor=#d5e8d4;strokeColor=#82b366;" parent="1" vertex="1">
          <mxGeometry x="450" y="135" width="150" height="175" as="geometry" />
        </mxCell>
        <mxCell id="Fhv3M6BjFYFYZc-pMVqY-41" style="edgeStyle=orthogonalEdgeStyle;rounded=0;orthogonalLoop=1;jettySize=auto;html=1;exitX=1;exitY=0.5;exitDx=0;exitDy=0;entryX=0;entryY=0.32;entryDx=0;entryDy=0;entryPerimeter=0;fontSize=15;" parent="1" source="Fhv3M6BjFYFYZc-pMVqY-6" target="Fhv3M6BjFYFYZc-pMVqY-7" edge="1">
          <mxGeometry relative="1" as="geometry" />
        </mxCell>
        <mxCell id="Fhv3M6BjFYFYZc-pMVqY-6" value="Middlewares" style="rounded=1;whiteSpace=wrap;html=1;fontSize=17;verticalAlign=top;arcSize=6;fillColor=#e1d5e7;strokeColor=#9673a6;" parent="1" vertex="1">
          <mxGeometry x="670" y="130" width="220" height="185" as="geometry" />
        </mxCell>
        <mxCell id="Fhv3M6BjFYFYZc-pMVqY-7" value="Controller" style="rounded=1;whiteSpace=wrap;html=1;fontSize=17;verticalAlign=top;arcSize=4;fillColor=#fff2cc;strokeColor=#d6b656;" parent="1" vertex="1">
          <mxGeometry x="1000" y="120" width="240" height="320" as="geometry" />
        </mxCell>
        <mxCell id="Fhv3M6BjFYFYZc-pMVqY-8" value="User" style="rounded=1;whiteSpace=wrap;html=1;fontSize=17;fillColor=#dae8fc;strokeColor=#6c8ebf;" parent="1" vertex="1">
          <mxGeometry x="470" y="170" width="120" height="30" as="geometry" />
        </mxCell>
        <mxCell id="Fhv3M6BjFYFYZc-pMVqY-9" value="Professional" style="rounded=1;whiteSpace=wrap;html=1;fontSize=17;fillColor=#dae8fc;strokeColor=#6c8ebf;" parent="1" vertex="1">
          <mxGeometry x="470" y="215" width="120" height="30" as="geometry" />
        </mxCell>
        <mxCell id="Fhv3M6BjFYFYZc-pMVqY-10" value="Company" style="rounded=1;whiteSpace=wrap;html=1;fontSize=17;fillColor=#dae8fc;strokeColor=#6c8ebf;" parent="1" vertex="1">
          <mxGeometry x="470" y="260" width="120" height="30" as="geometry" />
        </mxCell>
        <mxCell id="Fhv3M6BjFYFYZc-pMVqY-11" value="SessionTokenValidator" style="rounded=1;whiteSpace=wrap;html=1;fontSize=17;fillColor=#dae8fc;strokeColor=#6c8ebf;" parent="1" vertex="1">
          <mxGeometry x="687.5" y="175" width="185" height="30" as="geometry" />
        </mxCell>
        <mxCell id="Fhv3M6BjFYFYZc-pMVqY-12" value="RefreshTokenValidator" style="rounded=1;whiteSpace=wrap;html=1;fontSize=17;fillColor=#dae8fc;strokeColor=#6c8ebf;" parent="1" vertex="1">
          <mxGeometry x="690" y="220" width="180" height="35" as="geometry" />
        </mxCell>
        <mxCell id="Fhv3M6BjFYFYZc-pMVqY-13" value="RoleValidator" style="rounded=1;whiteSpace=wrap;html=1;fontSize=17;fillColor=#dae8fc;strokeColor=#6c8ebf;" parent="1" vertex="1">
          <mxGeometry x="723.75" y="270" width="112.5" height="35" as="geometry" />
        </mxCell>
        <mxCell id="Fhv3M6BjFYFYZc-pMVqY-18" style="edgeStyle=orthogonalEdgeStyle;rounded=0;orthogonalLoop=1;jettySize=auto;html=1;exitX=0.5;exitY=1;exitDx=0;exitDy=0;fontSize=17;" parent="1" source="Fhv3M6BjFYFYZc-pMVqY-14" target="Fhv3M6BjFYFYZc-pMVqY-17" edge="1">
          <mxGeometry relative="1" as="geometry" />
        </mxCell>
        <mxCell id="Fhv3M6BjFYFYZc-pMVqY-14" value="Service" style="rounded=1;whiteSpace=wrap;html=1;fontSize=17;verticalAlign=top;arcSize=4;fillColor=#dae8fc;strokeColor=#6c8ebf;" parent="1" vertex="1">
          <mxGeometry x="1030" y="175" width="180" height="175" as="geometry" />
        </mxCell>
        <mxCell id="Fhv3M6BjFYFYZc-pMVqY-15" value="Business Logic Validator" style="rounded=1;whiteSpace=wrap;html=1;fontSize=17;fillColor=#f8cecc;strokeColor=#b85450;" parent="1" vertex="1">
          <mxGeometry x="1050" y="220" width="140" height="50" as="geometry" />
        </mxCell>
        <mxCell id="Fhv3M6BjFYFYZc-pMVqY-25" style="edgeStyle=orthogonalEdgeStyle;rounded=0;orthogonalLoop=1;jettySize=auto;html=1;exitX=1;exitY=0.25;exitDx=0;exitDy=0;entryX=0;entryY=0;entryDx=0;entryDy=50;entryPerimeter=0;fontSize=17;" parent="1" source="Fhv3M6BjFYFYZc-pMVqY-16" target="Fhv3M6BjFYFYZc-pMVqY-19" edge="1">
          <mxGeometry relative="1" as="geometry">
            <Array as="points">
              <mxPoint x="1280" y="300" />
              <mxPoint x="1280" y="275" />
            </Array>
          </mxGeometry>
        </mxCell>
        <mxCell id="Fhv3M6BjFYFYZc-pMVqY-26" value="Query" style="edgeLabel;html=1;align=center;verticalAlign=middle;resizable=0;points=[];fontSize=17;" parent="Fhv3M6BjFYFYZc-pMVqY-25" vertex="1" connectable="0">
          <mxGeometry x="0.3516" y="1" relative="1" as="geometry">
            <mxPoint x="-54" y="21" as="offset" />
          </mxGeometry>
        </mxCell>
        <mxCell id="Fhv3M6BjFYFYZc-pMVqY-16" value="Data Fetch" style="rounded=1;whiteSpace=wrap;html=1;fontSize=17;fillColor=#b3cef4;strokeColor=#6c8ebf;" parent="1" vertex="1">
          <mxGeometry x="1060" y="290" width="120" height="40" as="geometry" />
        </mxCell>
        <mxCell id="Fhv3M6BjFYFYZc-pMVqY-17" value="Response" style="rounded=1;whiteSpace=wrap;html=1;fontSize=17;fillColor=#ffe6cc;strokeColor=#d79b00;" parent="1" vertex="1">
          <mxGeometry x="1060" y="380" width="120" height="40" as="geometry" />
        </mxCell>
        <mxCell id="Fhv3M6BjFYFYZc-pMVqY-22" style="edgeStyle=orthogonalEdgeStyle;rounded=0;orthogonalLoop=1;jettySize=auto;html=1;exitX=0;exitY=0;exitDx=0;exitDy=120;exitPerimeter=0;entryX=1;entryY=0.75;entryDx=0;entryDy=0;fontSize=17;" parent="1" source="Fhv3M6BjFYFYZc-pMVqY-19" target="Fhv3M6BjFYFYZc-pMVqY-16" edge="1">
          <mxGeometry relative="1" as="geometry">
            <Array as="points">
              <mxPoint x="1280" y="345" />
              <mxPoint x="1280" y="320" />
            </Array>
          </mxGeometry>
        </mxCell>
        <mxCell id="Fhv3M6BjFYFYZc-pMVqY-24" value="Data" style="edgeLabel;html=1;align=center;verticalAlign=middle;resizable=0;points=[];fontSize=17;" parent="Fhv3M6BjFYFYZc-pMVqY-22" vertex="1" connectable="0">
          <mxGeometry x="-0.3234" y="-2" relative="1" as="geometry">
            <mxPoint x="-51" y="-23" as="offset" />
          </mxGeometry>
        </mxCell>
        <mxCell id="Fhv3M6BjFYFYZc-pMVqY-19" value="DataBase" style="shape=cylinder3;whiteSpace=wrap;html=1;boundedLbl=1;backgroundOutline=1;size=15;fontSize=17;fillColor=#fff2cc;strokeColor=#d6b656;" parent="1" vertex="1">
          <mxGeometry x="1360" y="225" width="120" height="170" as="geometry" />
        </mxCell>
        <mxCell id="Fhv3M6BjFYFYZc-pMVqY-29" style="edgeStyle=orthogonalEdgeStyle;rounded=0;orthogonalLoop=1;jettySize=auto;html=1;exitX=1;exitY=0.5;exitDx=0;exitDy=0;entryX=0;entryY=0.5;entryDx=0;entryDy=0;fontSize=17;" parent="1" source="Fhv3M6BjFYFYZc-pMVqY-4" target="Fhv3M6BjFYFYZc-pMVqY-8" edge="1">
          <mxGeometry relative="1" as="geometry">
            <Array as="points">
              <mxPoint x="300" y="230" />
              <mxPoint x="300" y="185" />
            </Array>
          </mxGeometry>
        </mxCell>
        <mxCell id="Fhv3M6BjFYFYZc-pMVqY-35" value="/api/v1/user" style="edgeLabel;html=1;align=center;verticalAlign=middle;resizable=0;points=[];fontSize=17;" parent="Fhv3M6BjFYFYZc-pMVqY-29" vertex="1" connectable="0">
          <mxGeometry x="0.222" y="1" relative="1" as="geometry">
            <mxPoint as="offset" />
          </mxGeometry>
        </mxCell>
        <mxCell id="Fhv3M6BjFYFYZc-pMVqY-30" style="edgeStyle=orthogonalEdgeStyle;rounded=0;orthogonalLoop=1;jettySize=auto;html=1;exitX=1;exitY=0.5;exitDx=0;exitDy=0;entryX=0;entryY=0.5;entryDx=0;entryDy=0;fontSize=17;" parent="1" source="Fhv3M6BjFYFYZc-pMVqY-4" target="Fhv3M6BjFYFYZc-pMVqY-9" edge="1">
          <mxGeometry relative="1" as="geometry" />
        </mxCell>
        <mxCell id="Fhv3M6BjFYFYZc-pMVqY-36" value="&lt;font style=&quot;font-size: 15px;&quot;&gt;/api/v1/professional&lt;/font&gt;" style="edgeLabel;html=1;align=center;verticalAlign=middle;resizable=0;points=[];fontSize=17;" parent="Fhv3M6BjFYFYZc-pMVqY-30" vertex="1" connectable="0">
          <mxGeometry x="0.3632" y="3" relative="1" as="geometry">
            <mxPoint x="-32" y="3" as="offset" />
          </mxGeometry>
        </mxCell>
        <mxCell id="Fhv3M6BjFYFYZc-pMVqY-31" style="edgeStyle=orthogonalEdgeStyle;rounded=0;orthogonalLoop=1;jettySize=auto;html=1;exitX=1;exitY=0.5;exitDx=0;exitDy=0;entryX=0;entryY=0.5;entryDx=0;entryDy=0;fontSize=17;" parent="1" source="Fhv3M6BjFYFYZc-pMVqY-4" target="Fhv3M6BjFYFYZc-pMVqY-10" edge="1">
          <mxGeometry relative="1" as="geometry">
            <Array as="points">
              <mxPoint x="300" y="230" />
              <mxPoint x="300" y="275" />
            </Array>
          </mxGeometry>
        </mxCell>
        <mxCell id="Fhv3M6BjFYFYZc-pMVqY-37" value="/api/v1/company" style="edgeLabel;html=1;align=center;verticalAlign=middle;resizable=0;points=[];fontSize=15;" parent="Fhv3M6BjFYFYZc-pMVqY-31" vertex="1" connectable="0">
          <mxGeometry x="0.2073" y="-2" relative="1" as="geometry">
            <mxPoint y="-2" as="offset" />
          </mxGeometry>
        </mxCell>
        <mxCell id="Fhv3M6BjFYFYZc-pMVqY-34" value="" style="endArrow=classic;html=1;rounded=0;fontSize=17;exitX=0.5;exitY=1;exitDx=0;exitDy=0;" parent="1" source="Fhv3M6BjFYFYZc-pMVqY-17" edge="1">
          <mxGeometry width="50" height="50" relative="1" as="geometry">
            <mxPoint x="740" y="470" as="sourcePoint" />
            <mxPoint x="-120" y="460" as="targetPoint" />
            <Array as="points">
              <mxPoint x="1120" y="460" />
            </Array>
          </mxGeometry>
        </mxCell>
        <mxCell id="Fhv3M6BjFYFYZc-pMVqY-40" value="{&quot;data&quot;:{...},&quot;status&quot;:200}" style="edgeLabel;html=1;align=center;verticalAlign=middle;resizable=0;points=[];fontSize=15;" parent="Fhv3M6BjFYFYZc-pMVqY-34" vertex="1" connectable="0">
          <mxGeometry x="0.8492" y="1" relative="1" as="geometry">
            <mxPoint x="13" as="offset" />
          </mxGeometry>
        </mxCell>
        <mxCell id="Fhv3M6BjFYFYZc-pMVqY-38" value="" style="endArrow=classic;html=1;rounded=0;fontSize=15;entryX=0;entryY=0.5;entryDx=0;entryDy=0;" parent="1" target="Fhv3M6BjFYFYZc-pMVqY-3" edge="1">
          <mxGeometry width="50" height="50" relative="1" as="geometry">
            <mxPoint x="-120" y="230" as="sourcePoint" />
            <mxPoint x="-30" y="200" as="targetPoint" />
          </mxGeometry>
        </mxCell>
        <mxCell id="Fhv3M6BjFYFYZc-pMVqY-39" value="http://apiurl:port/..." style="edgeLabel;html=1;align=center;verticalAlign=middle;resizable=0;points=[];fontSize=15;" parent="Fhv3M6BjFYFYZc-pMVqY-38" vertex="1" connectable="0">
          <mxGeometry x="-0.0984" y="3" relative="1" as="geometry">
            <mxPoint as="offset" />
          </mxGeometry>
        </mxCell>
      </root>
    </mxGraphModel>
  </diagram>
</mxfile>
